<svg width="197" height="42" viewBox="0 0 197 42" fill="none" xmlns="http://www.w3.org/2000/svg">
<rect x="23.6924" width="7.61537" height="42" rx="3.80769" fill="url(#paint0_linear_54_1054)"/>
<rect x="35.5381" y="6.22217" width="7.61537" height="30" rx="3.80769" fill="url(#paint1_linear_54_1054)"/>
<rect x="47.3848" y="11.6665" width="7.61537" height="20" rx="3.80769" fill="#D9D9D9"/>
<rect x="47.3848" y="11.6665" width="7.61537" height="20" rx="3.80769" fill="url(#paint2_linear_54_1054)"/>
<rect x="11.8457" y="6.22217" width="7.61537" height="30" rx="3.80769" fill="url(#paint3_linear_54_1054)"/>
<rect y="11.6665" width="7.61537" height="20" rx="3.80769" fill="#D9D9D9"/>
<rect y="11.6665" width="7.61537" height="20" rx="3.80769" fill="url(#paint4_linear_54_1054)"/>
<path d="M65.476 30.334C65.532 29.7273 65.7187 29.13 66.036 28.542C66.3627 27.954 66.7313 27.4827 67.142 27.128C67.9353 27.604 68.8313 28.0287 69.83 28.402C70.8287 28.7753 71.8227 28.962 72.812 28.962C73.6707 28.962 74.296 28.7613 74.688 28.36C75.08 27.9493 75.276 27.4967 75.276 27.002C75.276 26.6473 75.1593 26.274 74.926 25.882C74.702 25.4807 74.1933 25.1167 73.4 24.79L70.026 23.376C68.8687 22.8907 67.912 22.2467 67.156 21.444C66.4093 20.6413 66.036 19.5773 66.036 18.252C66.036 17.104 66.3347 16.096 66.932 15.228C67.5293 14.36 68.3367 13.6833 69.354 13.198C70.3807 12.7127 71.524 12.47 72.784 12.47C74.0907 12.47 75.318 12.638 76.466 12.974C77.614 13.31 78.552 13.6693 79.28 14.052C79.2427 14.6587 79.0933 15.2513 78.832 15.83C78.5707 16.3993 78.2347 16.8753 77.824 17.258C77.1053 16.9127 76.2747 16.6 75.332 16.32C74.3893 16.04 73.5447 15.9 72.798 15.9C71.9673 15.9 71.3607 16.0913 70.978 16.474C70.6047 16.8567 70.418 17.2627 70.418 17.692C70.418 18.084 70.5487 18.4293 70.81 18.728C71.0807 19.0173 71.5287 19.2927 72.154 19.554L75.584 20.982C76.4707 21.346 77.2267 21.8033 77.852 22.354C78.4867 22.8953 78.9673 23.516 79.294 24.216C79.63 24.9067 79.798 25.658 79.798 26.47C79.798 27.59 79.5273 28.598 78.986 29.494C78.454 30.39 77.6467 31.0993 76.564 31.622C75.4907 32.1447 74.142 32.406 72.518 32.406C71.3793 32.406 70.1753 32.2287 68.906 31.874C67.646 31.51 66.5027 30.9967 65.476 30.334ZM94.2919 25.028C94.2919 26.512 94.0493 27.8093 93.5639 28.92C93.0786 30.0213 92.3599 30.88 91.4079 31.496C90.4559 32.1027 89.2799 32.406 87.8799 32.406C86.4799 32.406 85.3039 32.098 84.3519 31.482C83.3999 30.866 82.6813 30.0073 82.1959 28.906C81.7199 27.7953 81.4819 26.5027 81.4819 25.028C81.4819 23.5347 81.7246 22.2373 82.2099 21.136C82.6953 20.0253 83.4139 19.1667 84.3659 18.56C85.3179 17.944 86.4893 17.636 87.8799 17.636C89.2893 17.636 90.4699 17.944 91.4219 18.56C92.3739 19.176 93.0879 20.0393 93.5639 21.15C94.0493 22.2513 94.2919 23.544 94.2919 25.028ZM85.7659 25.028C85.7659 25.812 85.8173 26.526 85.9199 27.17C86.0226 27.814 86.2233 28.3273 86.5219 28.71C86.8299 29.0927 87.2873 29.284 87.8939 29.284C88.5006 29.284 88.9533 29.0927 89.2519 28.71C89.5506 28.3273 89.7513 27.814 89.8539 27.17C89.9566 26.526 90.0079 25.812 90.0079 25.028C90.0079 24.244 89.9566 23.53 89.8539 22.886C89.7513 22.2327 89.5506 21.7147 89.2519 21.332C88.9533 20.9493 88.5006 20.758 87.8939 20.758C87.2873 20.758 86.8299 20.9493 86.5219 21.332C86.2233 21.7147 86.0226 22.2327 85.9199 22.886C85.8173 23.53 85.7659 24.244 85.7659 25.028ZM98.7015 17.86C99.5042 17.86 100.106 18.1307 100.508 18.672C100.909 19.2133 101.11 19.9507 101.11 20.884V32C100.494 32.1027 99.7982 32.154 99.0235 32.154C98.2675 32.154 97.5675 32.1027 96.9235 32V18.056L97.1195 17.86H98.7015ZM108.824 28.57C108.824 29.1113 108.875 29.62 108.978 30.096C109.08 30.5627 109.253 30.9733 109.496 31.328C109.188 31.58 108.805 31.79 108.348 31.958C107.9 32.126 107.414 32.21 106.892 32.21C106.052 32.21 105.468 31.9907 105.142 31.552C104.815 31.104 104.652 30.4647 104.652 29.634V23.502C104.652 22.83 104.563 22.3353 104.386 22.018C104.208 21.7007 103.872 21.542 103.378 21.542C103.07 21.542 102.71 21.626 102.3 21.794C101.898 21.9527 101.502 22.214 101.11 22.578C100.727 22.9327 100.391 23.404 100.102 23.992V20.31C100.755 19.6567 101.474 19.0733 102.257 18.56C103.051 18.0467 103.942 17.79 104.932 17.79C105.79 17.79 106.509 18.0047 107.088 18.434C107.666 18.854 108.1 19.4327 108.39 20.17C108.679 20.9073 108.824 21.7567 108.824 22.718V28.57ZM117.038 32C116.422 32.1027 115.727 32.154 114.952 32.154C114.196 32.154 113.501 32.1027 112.866 32V22.592C112.866 22.1253 112.768 21.7427 112.572 21.444C112.385 21.1453 112.045 20.996 111.55 20.996H111.158C111.037 20.5387 110.976 20.0673 110.976 19.582C110.976 19.3487 110.99 19.1013 111.018 18.84C111.046 18.5693 111.093 18.3127 111.158 18.07C111.569 18.0233 111.989 17.9907 112.418 17.972C112.857 17.944 113.221 17.93 113.51 17.93H114.098C114.994 17.93 115.708 18.224 116.24 18.812C116.772 19.3907 117.038 20.1747 117.038 21.164V32ZM112.012 14.136C112.012 13.576 112.119 13.0533 112.334 12.568C112.567 12.4467 112.866 12.344 113.23 12.26C113.603 12.176 113.972 12.134 114.336 12.134C114.691 12.134 115.059 12.176 115.442 12.26C115.834 12.344 116.133 12.4467 116.338 12.568C116.441 12.8013 116.52 13.0627 116.576 13.352C116.632 13.632 116.66 13.8933 116.66 14.136C116.66 14.6867 116.553 15.214 116.338 15.718C116.133 15.8393 115.834 15.942 115.442 16.026C115.059 16.1007 114.691 16.138 114.336 16.138C113.972 16.138 113.599 16.1007 113.216 16.026C112.833 15.942 112.539 15.8393 112.334 15.718C112.119 15.214 112.012 14.6867 112.012 14.136ZM127.536 24.132C127.545 23.4227 127.508 22.816 127.424 22.312C127.349 21.808 127.186 21.4207 126.934 21.15C126.682 20.8793 126.299 20.744 125.786 20.744C125.104 20.744 124.619 21.0893 124.33 21.78C124.05 22.4707 123.91 23.5673 123.91 25.07C123.91 26.5727 124.124 27.6273 124.554 28.234C124.992 28.8407 125.622 29.144 126.444 29.144C127.004 29.144 127.55 29.0227 128.082 28.78C128.623 28.528 129.118 28.2433 129.566 27.926C129.902 28.122 130.224 28.458 130.532 28.934C130.849 29.41 131.054 29.858 131.148 30.278C130.532 30.922 129.738 31.44 128.768 31.832C127.797 32.2147 126.798 32.406 125.772 32.406C124.764 32.406 123.877 32.2333 123.112 31.888C122.346 31.5333 121.707 31.034 121.194 30.39C120.69 29.7367 120.307 28.962 120.046 28.066C119.784 27.1607 119.654 26.162 119.654 25.07C119.654 23.2687 119.957 21.8267 120.564 20.744C121.18 19.652 121.964 18.8633 122.916 18.378C123.868 17.8833 124.852 17.636 125.87 17.636C126.663 17.636 127.391 17.7527 128.054 17.986C128.716 18.21 129.286 18.5273 129.762 18.938C130.247 19.3487 130.62 19.834 130.882 20.394C131.143 20.954 131.274 21.5653 131.274 22.228C131.274 22.928 131.082 23.446 130.7 23.782C130.317 24.118 129.822 24.286 129.216 24.286C128.87 24.286 128.567 24.272 128.306 24.244C128.054 24.216 127.797 24.1787 127.536 24.132ZM140.552 12.834C141.663 12.806 142.755 12.7827 143.828 12.764C144.901 12.736 145.933 12.722 146.922 12.722C148.238 12.722 149.381 12.904 150.352 13.268C151.323 13.632 152.074 14.192 152.606 14.948C153.138 15.6947 153.404 16.6467 153.404 17.804C153.404 18.4947 153.245 19.1387 152.928 19.736C152.62 20.3333 152.205 20.828 151.682 21.22C151.159 21.612 150.581 21.8453 149.946 21.92V21.486C150.711 21.5233 151.425 21.78 152.088 22.256C152.751 22.7227 153.287 23.3293 153.698 24.076C154.109 24.8227 154.314 25.6393 154.314 26.526C154.314 27.7953 154.034 28.8453 153.474 29.676C152.914 30.5067 152.111 31.1273 151.066 31.538C150.03 31.9487 148.789 32.154 147.342 32.154C146.259 32.154 145.149 32.14 144.01 32.112C142.881 32.0933 141.728 32.07 140.552 32.042L140.356 31.86V13.016L140.552 12.834ZM144.57 29.158C145.037 29.1393 145.489 29.13 145.928 29.13C146.367 29.13 146.749 29.13 147.076 29.13C147.673 29.13 148.163 29.046 148.546 28.878C148.929 28.7007 149.227 28.472 149.442 28.192C149.657 27.912 149.806 27.6087 149.89 27.282C149.974 26.9553 150.016 26.638 150.016 26.33C150.016 25.91 149.927 25.4853 149.75 25.056C149.582 24.6173 149.283 24.2487 148.854 23.95C148.425 23.6513 147.818 23.502 147.034 23.502H142.946V20.436H146.698C147.37 20.436 147.888 20.3193 148.252 20.086C148.616 19.8527 148.868 19.554 149.008 19.19C149.157 18.826 149.232 18.4573 149.232 18.084C149.232 17.7013 149.157 17.3373 149.008 16.992C148.868 16.6373 148.616 16.348 148.252 16.124C147.888 15.8907 147.375 15.774 146.712 15.774C146.451 15.774 146.119 15.774 145.718 15.774C145.317 15.7647 144.934 15.7553 144.57 15.746V29.158ZM163.128 28.948C163.352 29.5733 163.464 30.236 163.464 30.936C163.464 31.0853 163.454 31.244 163.436 31.412C163.426 31.58 163.403 31.734 163.366 31.874C162.964 31.9393 162.502 32 161.98 32.056C161.466 32.112 160.953 32.14 160.44 32.14C159.226 32.14 158.358 31.8367 157.836 31.23C157.313 30.614 157.052 29.6667 157.052 28.388V11.588L157.248 11.392H158.858C159.688 11.392 160.272 11.5833 160.608 11.966C160.953 12.3393 161.126 12.9927 161.126 13.926V27.632C161.126 28.0613 161.219 28.388 161.406 28.612C161.592 28.836 161.9 28.948 162.33 28.948H163.128ZM170.249 32C169.633 32.1027 168.938 32.154 168.163 32.154C167.407 32.154 166.712 32.1027 166.077 32V22.592C166.077 22.1253 165.979 21.7427 165.783 21.444C165.596 21.1453 165.256 20.996 164.761 20.996H164.369C164.248 20.5387 164.187 20.0673 164.187 19.582C164.187 19.3487 164.201 19.1013 164.229 18.84C164.257 18.5693 164.304 18.3127 164.369 18.07C164.78 18.0233 165.2 17.9907 165.629 17.972C166.068 17.944 166.432 17.93 166.721 17.93H167.309C168.205 17.93 168.919 18.224 169.451 18.812C169.983 19.3907 170.249 20.1747 170.249 21.164V32ZM165.223 14.136C165.223 13.576 165.33 13.0533 165.545 12.568C165.778 12.4467 166.077 12.344 166.441 12.26C166.814 12.176 167.183 12.134 167.547 12.134C167.902 12.134 168.27 12.176 168.653 12.26C169.045 12.344 169.344 12.4467 169.549 12.568C169.652 12.8013 169.731 13.0627 169.787 13.352C169.843 13.632 169.871 13.8933 169.871 14.136C169.871 14.6867 169.764 15.214 169.549 15.718C169.344 15.8393 169.045 15.942 168.653 16.026C168.27 16.1007 167.902 16.138 167.547 16.138C167.183 16.138 166.81 16.1007 166.427 16.026C166.044 15.942 165.75 15.8393 165.545 15.718C165.33 15.214 165.223 14.6867 165.223 14.136ZM172.557 31.034C172.575 30.5767 172.697 30.0727 172.921 29.522C173.154 28.962 173.429 28.5233 173.747 28.206C174.353 28.5233 174.988 28.7987 175.651 29.032C176.313 29.2653 176.971 29.382 177.625 29.382C178.194 29.382 178.628 29.2793 178.927 29.074C179.225 28.8687 179.375 28.6073 179.375 28.29C179.375 28.0007 179.267 27.7487 179.053 27.534C178.847 27.31 178.511 27.114 178.045 26.946L176.477 26.372C175.823 26.1293 175.231 25.826 174.699 25.462C174.167 25.098 173.742 24.65 173.425 24.118C173.117 23.586 172.963 22.9467 172.963 22.2C172.963 21.2667 173.182 20.4593 173.621 19.778C174.069 19.0967 174.694 18.5693 175.497 18.196C176.309 17.8227 177.251 17.636 178.325 17.636C179.183 17.636 180.093 17.7573 181.055 18C182.016 18.2333 182.795 18.4993 183.393 18.798C183.421 19.2833 183.318 19.8247 183.085 20.422C182.861 21.0193 182.581 21.444 182.245 21.696C181.675 21.444 181.05 21.2107 180.369 20.996C179.697 20.7813 179.029 20.674 178.367 20.674C177.956 20.674 177.639 20.772 177.415 20.968C177.191 21.1547 177.079 21.388 177.079 21.668C177.079 21.9293 177.172 22.1487 177.359 22.326C177.545 22.5033 177.844 22.6667 178.255 22.816L179.977 23.446C181.041 23.8193 181.923 24.3607 182.623 25.07C183.332 25.7793 183.687 26.722 183.687 27.898C183.687 29.2793 183.155 30.376 182.091 31.188C181.036 32 179.575 32.406 177.709 32.406C176.719 32.406 175.777 32.2707 174.881 32C173.985 31.7293 173.21 31.4073 172.557 31.034ZM184.943 31.034C184.962 30.5767 185.083 30.0727 185.307 29.522C185.541 28.962 185.816 28.5233 186.133 28.206C186.74 28.5233 187.375 28.7987 188.037 29.032C188.7 29.2653 189.358 29.382 190.011 29.382C190.581 29.382 191.015 29.2793 191.313 29.074C191.612 28.8687 191.761 28.6073 191.761 28.29C191.761 28.0007 191.654 27.7487 191.439 27.534C191.234 27.31 190.898 27.114 190.431 26.946L188.863 26.372C188.21 26.1293 187.617 25.826 187.085 25.462C186.553 25.098 186.129 24.65 185.811 24.118C185.503 23.586 185.349 22.9467 185.349 22.2C185.349 21.2667 185.569 20.4593 186.007 19.778C186.455 19.0967 187.081 18.5693 187.883 18.196C188.695 17.8227 189.638 17.636 190.711 17.636C191.57 17.636 192.48 17.7573 193.441 18C194.403 18.2333 195.182 18.4993 195.779 18.798C195.807 19.2833 195.705 19.8247 195.471 20.422C195.247 21.0193 194.967 21.444 194.631 21.696C194.062 21.444 193.437 21.2107 192.755 20.996C192.083 20.7813 191.416 20.674 190.753 20.674C190.343 20.674 190.025 20.772 189.801 20.968C189.577 21.1547 189.465 21.388 189.465 21.668C189.465 21.9293 189.559 22.1487 189.745 22.326C189.932 22.5033 190.231 22.6667 190.641 22.816L192.363 23.446C193.427 23.8193 194.309 24.3607 195.009 25.07C195.719 25.7793 196.073 26.722 196.073 27.898C196.073 29.2793 195.541 30.376 194.477 31.188C193.423 32 191.962 32.406 190.095 32.406C189.106 32.406 188.163 32.2707 187.267 32C186.371 31.7293 185.597 31.4073 184.943 31.034Z" fill="white"/>
<defs>
<linearGradient id="paint0_linear_54_1054" x1="27.5001" y1="0" x2="27.5001" y2="51.3333" gradientUnits="userSpaceOnUse">
<stop stop-color="#F5AF19"/>
<stop offset="1" stop-color="#F12711"/>
</linearGradient>
<linearGradient id="paint1_linear_54_1054" x1="39.4562" y1="42.8885" x2="39.2588" y2="6.22234" gradientUnits="userSpaceOnUse">
<stop stop-color="#F5AF19"/>
<stop offset="1" stop-color="#F12711"/>
</linearGradient>
<linearGradient id="paint2_linear_54_1054" x1="51.1925" y1="11.6665" x2="51.1925" y2="36.1109" gradientUnits="userSpaceOnUse">
<stop stop-color="#F5AF19"/>
<stop offset="1" stop-color="#F12711"/>
</linearGradient>
<linearGradient id="paint3_linear_54_1054" x1="15.7638" y1="42.8885" x2="15.5664" y2="6.22234" gradientUnits="userSpaceOnUse">
<stop stop-color="#F5AF19"/>
<stop offset="1" stop-color="#F12711"/>
</linearGradient>
<linearGradient id="paint4_linear_54_1054" x1="3.80769" y1="11.6665" x2="3.80769" y2="36.1109" gradientUnits="userSpaceOnUse">
<stop stop-color="#F5AF19"/>
<stop offset="1" stop-color="#F12711"/>
</linearGradient>
</defs>
</svg>
